<svg width="60" height="60" viewBox="0 0 60 60" fill="none" xmlns="http://www.w3.org/2000/svg">
<path fill-rule="evenodd" clip-rule="evenodd" d="M10.2857 10.1184C10.2857 4.53017 15.2745 0 21.4286 0C24.875 0 27.9561 1.42084 30 3.65264C32.044 1.42084 35.125 0 38.5714 0C44.7255 0 49.7143 4.53017 49.7143 10.1184C49.7143 12.1244 49.0714 13.9941 47.9626 15.5668H50.5714C55.7787 15.5668 60 19.4 60 24.1285V30.3552C60 32.8589 58.1404 34.9681 55.607 35.606C56.1009 41.2929 55.8148 47.0169 54.7525 52.646C54.1182 56.0074 51.1118 58.5824 47.3794 58.9612L44.2441 59.2794C34.7775 60.2402 25.2225 60.2402 15.7559 59.2794L12.6206 58.9612C8.8882 58.5824 5.8818 56.0074 5.24748 52.646C4.18521 47.0169 3.89911 41.2929 4.39306 35.606C1.85965 34.9681 0 32.8589 0 30.3552V24.1285C0 19.4 4.22132 15.5668 9.42857 15.5668H12.0374C10.9286 13.9941 10.2857 12.1244 10.2857 10.1184ZM27.4286 10.1184C27.4286 7.10936 24.7423 4.67004 21.4286 4.67004C18.1149 4.67004 15.4286 7.10936 15.4286 10.1184C15.4286 13.1275 18.1149 15.5668 21.4286 15.5668C24.7423 15.5668 27.4286 13.1275 27.4286 10.1184ZM38.5714 15.5668C41.8851 15.5668 44.5714 13.1275 44.5714 10.1184C44.5714 7.10936 41.8851 4.67004 38.5714 4.67004C35.2577 4.67004 32.5714 7.10936 32.5714 10.1184C32.5714 13.1275 35.2577 15.5668 38.5714 15.5668ZM5.14286 24.1285C5.14286 21.9792 7.06164 20.2368 9.42857 20.2368H27.4286V31.1336H6C5.52661 31.1336 5.14286 30.7851 5.14286 30.3552V24.1285ZM32.5714 35.8036H50.465C50.9461 41.1605 50.6843 46.554 49.6836 51.8573C49.4362 53.1681 48.2638 54.1724 46.8082 54.3201L43.6728 54.6383C39.9826 55.0128 36.2783 55.2352 32.5714 55.3056V35.8036ZM32.5714 31.1336H54C54.4734 31.1336 54.8571 30.7851 54.8571 30.3552V24.1285C54.8571 21.9792 52.9384 20.2368 50.5714 20.2368H32.5714V31.1336ZM27.4286 35.8036V55.3056C23.7217 55.2352 20.0174 55.0128 16.3272 54.6383L13.1918 54.3201C11.7363 54.1724 10.5638 53.1681 10.3165 51.8573C9.31569 46.554 9.05395 41.1605 9.53497 35.8036H27.4286Z" fill="#0287E7"/>
</svg>
