<svg width="60" height="60" viewBox="0 0 60 60" fill="none" xmlns="http://www.w3.org/2000/svg">
<path fill-rule="evenodd" clip-rule="evenodd" d="M25.6751 8.77279C13.9555 9.97726 4.81408 19.88 4.81408 31.9179C4.81408 44.7685 15.2315 55.1859 28.0821 55.1859C40.12 55.1859 50.0227 46.0445 51.2272 34.3249H28.0821C26.7528 34.3249 25.6751 33.2472 25.6751 31.9179V8.77279ZM0 31.9179C0 16.4085 12.5728 3.83571 28.0821 3.83571C29.4115 3.83571 30.4892 4.91338 30.4892 6.24275V29.5108H53.7572C55.0866 29.5108 56.1643 30.5885 56.1643 31.9179C56.1643 47.4272 43.5915 60 28.0821 60C12.5728 60 0 47.4272 0 31.9179Z" fill="#0287E7"/>
<path fill-rule="evenodd" clip-rule="evenodd" d="M39.315 5.19535V20.685H54.8046C52.9977 13.0325 46.9675 7.00232 39.315 5.19535ZM37.7039 0.0218246C49.3229 1.46774 58.5323 10.6771 59.9782 22.2961C60.1971 24.055 58.7391 25.4991 56.9666 25.4991H36.1056C35.2194 25.4991 34.5009 24.7806 34.5009 23.8944V3.03337C34.5009 1.26087 35.945 -0.197064 37.7039 0.0218246Z" fill="#0287E7"/>
</svg>
