<svg width="63" height="57" viewBox="0 0 63 57" fill="none" xmlns="http://www.w3.org/2000/svg">
<path fill-rule="evenodd" clip-rule="evenodd" d="M15.2562 0C13.5496 0 11.956 0.852911 11.0093 2.27288L0.540739 17.9757C-0.100149 18.9371 -0.17679 20.1681 0.33991 21.2015C6.06855 32.6588 14.0297 42.8553 23.7556 51.1917L28.8618 55.5685C30.2046 56.7194 32.186 56.7194 33.5287 55.5685L38.635 51.1917C48.3608 42.8553 56.322 32.6588 62.0506 21.2015C62.5673 20.1681 62.4907 18.9371 61.8498 17.9757L51.3812 2.27288C50.4346 0.852912 48.8409 0 47.1343 0H15.2562ZM14.6495 4.6997C14.7848 4.49684 15.0124 4.375 15.2562 4.375H22.0807L16.4949 17.7808C16.3662 18.0896 16.2691 18.4081 16.2037 18.7315C14.1508 18.5787 12.0997 18.3945 10.0511 18.1789L5.95112 17.7473L14.6495 4.6997ZM5.75802 22.1261C10.9888 31.7219 17.8959 40.3123 26.1588 47.487L17.0429 23.1778C14.5569 23.0069 12.0732 22.7909 9.59313 22.5298L5.75802 22.1261ZM21.8176 23.4505L31.1953 48.4575L40.5729 23.4505C34.3244 23.7347 28.0662 23.7347 21.8176 23.4505ZM45.3477 23.1778L36.2318 47.4869C44.4947 40.3123 51.4018 31.7219 56.6325 22.1261L52.7974 22.5298C50.3173 22.7909 47.8337 23.0069 45.3477 23.1778ZM56.4394 17.7473L52.3394 18.1789C50.2908 18.3945 48.2397 18.5787 46.1869 18.7315C46.1214 18.4081 46.0243 18.0896 45.8957 17.7808L40.3099 4.375H47.1343C47.3781 4.375 47.6058 4.49684 47.741 4.6997L56.4394 17.7473ZM41.6711 19.0168C34.6919 19.3793 27.6986 19.3793 20.7195 19.0168L26.8203 4.375H35.5703L41.6711 19.0168Z" fill="#0187E7"/>
</svg>
