<svg width="687" height="571" viewBox="0 0 687 571" fill="none" xmlns="http://www.w3.org/2000/svg">
<g clip-path="url(#clip0_5_712)">
<path d="M472.684 94.6905C470.912 91.7046 463.245 94.9017 461.836 92.1918C460.432 89.4917 467.554 85.3777 471.624 75.9795C472.358 74.2847 476.982 63.6043 473.559 60.3087C467.069 54.062 437.375 79.8407 426.983 71.4047C424.702 69.5534 423.109 65.8575 416.207 59.8569C413.461 57.4698 411.801 56.392 410.194 56.793C407.914 57.3619 407.733 60.4114 405.288 66.4073C401.621 75.3994 399.453 74.8564 397.316 82.0306C395.73 87.3563 396.092 90.4526 394.226 91.0558C391.585 91.9095 389.155 86.2606 385.808 86.7664C382.392 87.2826 380.328 93.8598 379.675 98.7843C378.452 108.025 381.848 114.123 383.73 120.535C385.776 127.504 386.99 138.101 382.266 153.103L335.509 284.747C345.831 257.734 375.72 183.684 388.279 156.166C391.905 148.223 395.908 140.165 404.127 136.985C412.041 133.924 422.91 135.752 436.765 132.416C438.384 132.027 442.874 130.885 443.439 128.245C443.907 126.063 441.265 124.845 441.671 122.802C442.216 120.06 447.41 120.027 453.793 116.864C458.294 114.634 461.098 111.982 463.509 109.701C464.236 109.013 475.043 98.6653 472.684 94.6905H472.684V94.6905Z" fill="#F2F2F2"/>
<path d="M288.728 163.993C286.75 164.001 286.109 168.683 284.371 168.593C282.64 168.503 282.674 163.822 279.232 159.115C278.612 158.266 274.7 152.916 272.094 153.644C267.153 155.024 271.247 177.026 264.105 179.689C262.538 180.273 260.263 179.988 255.324 181.642C253.359 182.3 252.351 182.804 252.084 183.707C251.706 184.99 253.151 185.958 255.391 188.888C258.749 193.28 257.857 194.187 260.764 197.305C262.922 199.62 264.548 200.335 264.305 201.425C263.963 202.966 260.487 202.529 259.769 204.316C259.038 206.14 261.672 209.05 263.903 210.791C268.089 214.058 272.063 214.152 275.756 215.078C279.769 216.086 285.324 218.548 291.329 225.193L342.496 286.109C332.207 273.252 304.46 237.228 294.569 223.128C291.713 219.058 288.911 214.77 289.721 209.821C290.5 205.056 294.534 200.253 296.894 192.495C297.169 191.589 297.904 189.057 296.771 188.018C295.834 187.159 294.474 188.103 293.587 187.315C292.398 186.257 293.88 183.699 294.168 179.656C294.371 176.805 293.878 174.665 293.453 172.824C293.325 172.269 291.361 163.983 288.728 163.993V163.993H288.728Z" fill="#F2F2F2"/>
<path d="M328.186 172.844L326.994 162.215L327.539 161.409C330.058 157.682 331.342 154.043 331.358 150.589C331.36 150.04 331.334 149.491 331.309 148.931C331.206 146.714 331.078 143.958 332.516 140.744C333.322 138.953 335.587 134.806 338.993 135.319C339.91 135.448 340.603 135.868 341.13 136.361C341.207 136.238 341.286 136.115 341.371 135.981C342.432 134.364 343.271 133.672 344.08 133.004C344.702 132.491 345.344 131.962 346.351 130.71C346.792 130.161 347.137 129.678 347.427 129.273C348.308 128.046 349.458 126.583 351.487 126.609C353.655 126.712 354.79 128.503 355.542 129.689C356.885 131.803 357.494 133.328 357.897 134.339C358.044 134.708 358.211 135.124 358.295 135.252C358.994 136.279 364.672 135.319 366.811 134.97C371.616 134.169 375.774 133.477 377.487 136.505C378.715 138.671 377.803 141.535 374.696 145.246C373.728 146.401 372.698 147.278 371.783 147.966C372.541 148.418 373.219 149.111 373.494 150.199C374.141 152.776 371.925 155.357 366.909 157.883C365.663 158.514 363.986 159.356 361.637 159.761C360.53 159.951 359.533 159.997 358.681 160.023C358.663 160.516 358.547 161.05 358.247 161.599C357.366 163.216 355.532 163.985 352.769 163.801C349.728 163.642 347.224 163.062 345.015 162.553C343.087 162.112 341.425 161.737 340.12 161.825C337.701 162.02 335.837 163.955 333.649 166.465L328.186 172.844H328.186Z" fill="#F2F2F2"/>
<path d="M333.714 109.554L323.726 113.402L322.808 113.081C318.562 111.59 314.714 111.272 311.366 112.134C310.834 112.27 310.309 112.435 309.774 112.601C307.654 113.263 305.018 114.086 301.543 113.511C299.605 113.186 295.016 112.048 294.649 108.627C294.54 107.708 294.772 106.931 295.115 106.297C294.977 106.254 294.837 106.208 294.686 106.16C292.852 105.545 291.969 104.909 291.117 104.296C290.463 103.825 289.788 103.339 288.321 102.684C287.677 102.396 287.123 102.186 286.657 102.008C285.246 101.468 283.538 100.727 283.048 98.7589C282.598 96.6377 284.044 95.0861 285.001 94.058C286.707 92.2233 288.028 91.2483 288.905 90.6021C289.225 90.3669 289.585 90.1 289.688 89.9856C290.505 89.05 288.135 83.8047 287.255 81.8255C285.261 77.384 283.535 73.5407 286.032 71.1168C287.818 69.3808 290.821 69.5355 295.202 71.598C296.565 72.241 297.676 73.0138 298.574 73.7231C298.819 72.8762 299.317 72.0451 300.301 71.5035C302.631 70.2244 305.692 71.7118 309.409 75.9194C310.336 76.9633 311.576 78.3708 312.565 80.5393C313.029 81.5611 313.327 82.5125 313.568 83.3302C314.05 83.2226 314.596 83.1989 315.203 83.3501C316.992 83.7914 318.202 85.3686 318.724 88.0866C319.342 91.0661 319.415 93.6336 319.484 95.8974C319.546 97.8736 319.604 99.5748 320.02 100.814C320.822 103.103 323.168 104.414 326.153 105.892L333.714 109.554L333.714 109.554V109.554Z" fill="#F2F2F2"/>
<path d="M328.186 78.2385L326.994 67.6086L327.539 66.8028C330.058 63.0764 331.342 59.4373 331.358 55.983C331.36 55.4338 331.334 54.8846 331.309 54.3252C331.206 52.1078 331.078 49.3516 332.516 46.1385C333.322 44.3472 335.587 40.2 338.993 40.7132C339.91 40.8416 340.603 41.2624 341.13 41.7551C341.207 41.632 341.286 41.5088 341.371 41.3753C342.432 39.7585 343.271 39.0656 344.08 38.3984C344.702 37.8851 345.344 37.3565 346.351 36.1041C346.792 35.5549 347.137 35.0724 347.427 34.6669C348.308 33.4402 349.458 31.9773 351.487 32.003C353.655 32.1057 354.79 33.897 355.542 35.0826C356.885 37.1973 357.494 38.7217 357.897 39.7328C358.044 40.1024 358.211 40.5181 358.295 40.6465C358.994 41.673 364.672 40.7132 366.811 40.3642C371.616 39.5634 375.774 38.8706 377.487 41.8989C378.715 44.0648 377.803 46.9289 374.696 50.6399C373.728 51.7947 372.698 52.6724 371.783 53.3602C372.541 53.8119 373.219 54.5048 373.494 55.593C374.141 58.1696 371.925 60.7513 366.909 63.2767C365.663 63.9079 363.986 64.7498 361.637 65.1552C360.53 65.3452 359.533 65.3914 358.681 65.417C358.663 65.9098 358.547 66.4436 358.247 66.9928C357.366 68.6096 355.532 69.3794 352.769 69.1947C349.728 69.0355 347.224 68.4556 345.015 67.9474C343.087 67.506 341.425 67.1313 340.12 67.2186C337.701 67.4136 335.837 69.3486 333.649 71.8586L328.186 78.2385H328.186Z" fill="#F2F2F2"/>
<path d="M339.07 284.573L336.841 283.177L336.301 280.606L336.841 283.177L334.242 283.475C334.201 283.234 334.059 282.679 333.846 281.812C332.683 277.059 329.136 262.595 326.178 239.816C324.113 223.915 322.944 207.567 322.703 191.22C322.461 174.846 323.237 162.451 323.859 152.488C324.329 144.974 324.899 137.819 325.459 130.849C326.948 112.227 328.353 94.6375 327.308 75.164C327.076 70.8166 326.591 61.7676 321.301 52.1386C318.232 46.5542 314.004 41.5961 308.734 37.4078L312.011 33.2914C317.828 37.9211 322.505 43.4131 325.913 49.6134C331.779 60.2895 332.308 70.1494 332.562 74.8869C333.625 94.7043 332.205 112.464 330.7 131.265C330.145 138.209 329.575 145.333 329.108 152.817C328.492 162.687 327.724 174.975 327.962 191.138C328.199 207.29 329.354 223.438 331.391 239.139C334.314 261.63 337.809 275.879 338.957 280.56C339.568 283.059 339.696 283.583 339.07 284.573V284.573H339.07Z" fill="#F2F2F2"/>
<path d="M299.088 45.7587C298.873 45.7587 298.654 45.7536 298.434 45.7382C293.955 45.497 289.807 42.8177 286.104 37.7774C284.368 35.406 283.479 32.7011 281.707 27.3066C281.432 26.4751 280.097 22.256 279.285 16.4509C278.754 12.6578 278.82 11.0719 279.573 9.67064C280.407 8.11027 281.758 7.02216 283.279 6.2882C283.212 5.78517 283.266 5.26678 283.484 4.7381C284.38 2.54644 286.764 2.83389 288.053 2.97246C288.705 3.05458 289.519 3.16238 290.398 3.11615C291.779 3.04946 292.522 2.63879 293.646 2.02286C294.723 1.43259 296.061 0.698616 298.046 0.29313C301.96 -0.522958 305.239 0.585714 306.32 0.950091C312.009 2.84406 314.813 7.26333 318.06 12.3806C318.707 13.4072 320.928 17.1437 322.395 22.2662C323.453 25.9618 323.304 27.6042 322.985 28.8258C322.338 31.3357 320.81 32.7729 316.93 35.9449C312.877 39.2658 310.843 40.9288 309.097 41.9399C305.031 44.2856 302.478 45.7586 299.088 45.7586V45.7587Z" fill="#F2F2F2"/>
<path d="M151.799 326.107C135.441 334.638 126.587 349.988 132.022 360.39C137.457 370.791 155.121 372.305 171.483 363.768C178.066 360.448 183.758 355.6 188.081 349.631L256.932 312.607L238.857 280.691L172.901 320.578C165.526 320.71 158.29 322.606 151.799 326.107H151.799H151.799Z" fill="#FFB6B6"/>
<path d="M206.955 301.171V258.16C206.955 255.679 208.974 253.661 211.456 253.661H232.284C234.766 253.661 236.785 255.679 236.785 258.16V301.171C236.785 303.651 234.766 305.669 232.284 305.669H211.456C208.974 305.669 206.955 303.651 206.955 301.171H206.955Z" fill="#0287E7"/>
<path d="M443.675 561.233L373.964 562.194L346.015 250.781C345.337 243.222 347.78 235.58 352.719 229.814L421.267 149.788C430.863 138.586 447.179 136.565 459.22 145.091L545.076 205.877C552.08 210.836 556.42 218.59 556.983 227.149L619.654 437.546L611.249 507.711L611.331 507.809L621.265 558.785L443.675 561.233Z" fill="#E6E6E6"/>
<path d="M429.073 222.196L427.951 207.742C427.655 203.927 430.52 200.582 434.338 200.286L454.66 198.71C458.478 198.414 461.825 201.277 462.121 205.092L463.244 219.546C463.54 223.362 460.675 226.706 456.857 227.002L436.535 228.579C432.717 228.875 429.37 226.012 429.073 222.196V222.196Z" fill="#0287E7"/>
<path d="M394.83 337.721L390.677 284.243C390.38 280.428 393.246 277.083 397.064 276.787L427.149 274.454C430.967 274.158 434.314 277.021 434.61 280.836L438.763 334.314C439.059 338.129 436.195 341.474 432.377 341.77L402.291 344.103C398.474 344.399 395.126 341.536 394.83 337.721V337.721Z" fill="#3F3D56"/>
<path d="M472.557 457.627C468.911 457.78 465.749 455.059 465.359 451.432L459.824 399.862C459.588 397.66 460.384 395.536 462.009 394.031C463.634 392.526 465.816 391.897 467.995 392.298L469.547 392.585C472.636 393.158 474.963 395.742 475.206 398.872L479.189 450.156C479.336 452.05 478.722 453.876 477.461 455.298C476.255 456.656 474.611 457.471 472.809 457.611C472.725 457.617 472.642 457.623 472.557 457.627Z" fill="#3F3D56"/>
<path d="M408.879 455.39L404.714 401.757C404.42 397.971 407.152 394.702 410.932 394.315L438.225 391.529C442.011 391.182 445.431 393.908 445.837 397.696L451.629 451.872C451.83 453.754 451.274 455.591 450.063 457.046C448.854 458.501 447.148 459.383 445.261 459.529L416.341 461.772C412.523 462.068 409.176 459.205 408.879 455.39Z" fill="#3F3D56"/>
<path d="M573.348 479.504L597.737 515.916L603.523 558.544L620.672 558.304L610.875 508.027L571.94 461.973C569.33 467.664 569.863 474.302 573.348 479.504V479.504Z" fill="#CCCCCC"/>
<path d="M601.885 546.342L532.4 552.687L532.489 553.662L601.975 547.317L601.885 546.342Z" fill="#3F3D56"/>
<path d="M596.997 538.059L531.084 543.689L531.168 544.664L597.081 539.034L596.997 538.059Z" fill="#3F3D56"/>
<path d="M592.891 529.526L529.899 535.65L529.994 536.624L592.986 530.5L592.891 529.526Z" fill="#3F3D56"/>
<path d="M590.253 520.928L529.825 527.637L529.933 528.61L590.361 521.901L590.253 520.928Z" fill="#3F3D56"/>
<path d="M586.719 513.364L528.669 519.923L528.779 520.896L586.829 514.337L586.719 513.364Z" fill="#3F3D56"/>
<path d="M582.297 506.809L525.603 511.205L525.678 512.181L582.373 507.784L582.297 506.809Z" fill="#3F3D56"/>
<path d="M578.83 500.19L523.783 505.108L523.87 506.083L578.918 501.165L578.83 500.19Z" fill="#3F3D56"/>
<path d="M575.361 493.595L522.11 499.506L522.218 500.48L575.469 494.568L575.361 493.595Z" fill="#3F3D56"/>
<path d="M572.889 486.952L520.241 491.967L520.334 492.941L572.982 487.926L572.889 486.952Z" fill="#3F3D56"/>
<path d="M568.452 480.499L518.094 485.99L518.2 486.963L568.558 481.472L568.452 480.499Z" fill="#3F3D56"/>
<path d="M566.048 474.698L516.051 479.067L516.136 480.042L566.133 475.673L566.048 474.698Z" fill="#3F3D56"/>
<path d="M510.797 458.773L505.658 392.613C505.362 388.797 508.227 385.452 512.045 385.156L544.083 382.671C547.901 382.375 551.248 385.238 551.544 389.054L556.682 455.214C556.979 459.029 554.114 462.374 550.296 462.67L518.258 465.155C514.44 465.451 511.093 462.588 510.797 458.773Z" fill="#0287E7"/>
<path d="M443.676 561.233L386.682 562.021L386.223 562.027L382.816 518.167C382.386 512.621 386.551 507.757 392.102 507.327L448.119 502.983C453.67 502.552 458.536 506.715 458.967 512.262L462.656 559.762L462.168 559.8L443.676 561.233V561.233Z" fill="#CCCCCC"/>
<path d="M505.382 338.472L501.456 287.921C501.16 284.105 504.025 280.761 507.843 280.464L518.403 279.646C522.221 279.349 525.567 282.213 525.864 286.028L529.79 336.579C530.086 340.394 527.221 343.739 523.403 344.035L512.844 344.854C509.026 345.15 505.679 342.287 505.382 338.472Z" fill="#3F3D56"/>
<path d="M533.328 559.189L527.065 516.49L515.097 476.196L511.784 465.166C506.504 462.147 500.045 466.462 500.818 472.492L501.428 477.256L513.397 517.55L519.66 560.249" fill="#CCCCCC"/>
<path d="M-168.229 569.103L-237.94 570.064L-265.889 258.651C-266.567 251.092 -264.124 243.45 -259.185 237.684L-190.637 157.658C-181.041 146.456 -164.725 144.435 -152.684 152.961L-66.8284 213.747C-59.8242 218.706 -55.4837 226.46 -54.9206 235.019L7.75015 445.416L-0.655518 515.581L-0.573151 515.679L9.36084 566.655L-168.228 569.103H-168.229Z" fill="#E6E6E6"/>
<path d="M-38.5559 487.374L-14.167 523.786L-8.3813 566.414L8.76833 566.174L-1.02932 515.897L-39.9641 469.843C-42.5738 475.535 -42.0406 482.172 -38.5559 487.374V487.374Z" fill="#CCCCCC"/>
<path d="M199.366 564.476L129.656 565.437L101.707 254.024C101.029 246.465 103.472 238.823 108.411 233.057L176.959 153.031C186.555 141.828 202.87 139.809 214.912 148.334L300.767 209.121C307.771 214.079 345.452 242.221 346.015 250.781L328.109 465.024L366.94 510.955L367.022 511.052L376.956 562.028L199.366 564.476H199.366Z" fill="#E6E6E6"/>
<path d="M184.765 225.439L183.643 210.986C183.346 207.17 186.211 203.826 190.03 203.529L210.352 201.953C214.17 201.657 217.516 204.52 217.813 208.336L218.935 222.789C219.231 226.605 216.367 229.95 212.549 230.246L192.227 231.822C188.409 232.118 185.061 229.255 184.765 225.439V225.439Z" fill="#0287E7"/>
<path d="M150.522 340.964L146.368 287.487C146.072 283.671 148.937 280.327 152.756 280.03L182.84 277.697C186.658 277.401 190.005 280.264 190.301 284.079L194.455 337.557C194.751 341.372 191.886 344.717 188.068 345.013L157.984 347.346C154.165 347.643 150.818 344.779 150.522 340.964Z" fill="#3F3D56"/>
<path d="M218.367 397.992C216.971 399.284 216.287 401.11 216.49 403.001L222.025 454.571C222.36 457.686 225.076 460.023 228.208 459.891C229.854 459.83 231.336 459.112 232.419 457.891C233.503 456.671 234.031 455.102 233.904 453.475L229.922 402.191C229.713 399.503 227.714 397.282 225.06 396.791L223.507 396.504C222.982 396.406 222.456 396.379 221.94 396.419C220.621 396.521 219.371 397.063 218.367 397.992V397.992Z" fill="#3F3D56"/>
<path d="M135.848 466.087C134.382 464.877 133.494 463.167 133.347 461.273L129.364 409.99C129.121 406.86 131.021 403.947 133.984 402.906L135.474 402.382C137.562 401.651 139.817 401.936 141.655 403.171C143.494 404.408 144.609 406.385 144.715 408.596L147.208 460.402C147.383 464.045 144.68 467.221 141.053 467.632C140.97 467.641 140.885 467.649 140.801 467.655C139 467.795 137.25 467.243 135.848 466.087Z" fill="#3F3D56"/>
<path d="M329.04 482.747L353.429 519.159L359.214 561.787L376.364 561.547L366.566 511.27L327.631 465.216C325.022 470.908 325.555 477.545 329.04 482.747V482.747Z" fill="#CCCCCC"/>
<path d="M357.577 549.585L288.092 555.93L288.181 556.905L357.666 550.56L357.577 549.585Z" fill="#3F3D56"/>
<path d="M352.689 541.302L286.776 546.932L286.859 547.907L352.772 542.277L352.689 541.302Z" fill="#3F3D56"/>
<path d="M348.583 532.769L285.591 538.893L285.686 539.867L348.677 533.743L348.583 532.769Z" fill="#3F3D56"/>
<path d="M345.945 524.171L285.516 530.88L285.624 531.853L346.053 525.144L345.945 524.171Z" fill="#3F3D56"/>
<path d="M342.41 516.607L284.36 523.166L284.471 524.139L342.52 517.58L342.41 516.607Z" fill="#3F3D56"/>
<path d="M337.989 510.052L281.294 514.448L281.37 515.424L338.064 511.027L337.989 510.052Z" fill="#3F3D56"/>
<path d="M334.522 503.433L279.474 508.351L279.561 509.326L334.609 504.408L334.522 503.433Z" fill="#3F3D56"/>
<path d="M331.053 496.838L277.801 502.75L277.909 503.723L331.161 497.811L331.053 496.838Z" fill="#3F3D56"/>
<path d="M328.581 490.195L275.932 495.21L276.025 496.184L328.674 491.169L328.581 490.195Z" fill="#3F3D56"/>
<path d="M324.143 483.742L273.786 489.233L273.892 490.206L324.25 484.715L324.143 483.742Z" fill="#3F3D56"/>
<path d="M321.74 477.942L271.743 482.31L271.828 483.285L321.825 478.916L321.74 477.942Z" fill="#3F3D56"/>
<path d="M266.488 462.016L261.35 395.856C261.054 392.04 263.919 388.695 267.737 388.399L299.775 385.914C303.593 385.618 306.939 388.482 307.236 392.297L312.374 458.458C312.67 462.272 309.805 465.617 305.988 465.913L273.95 468.398C270.132 468.694 266.785 465.831 266.488 462.016Z" fill="#0287E7"/>
<path d="M199.366 564.476L142.373 565.264L141.914 565.27L138.508 521.411C138.077 515.864 142.243 511 147.794 510.57L203.811 506.226C209.362 505.795 214.228 509.958 214.659 515.505L218.348 563.005L217.859 563.043L199.366 564.476L199.366 564.476Z" fill="#CCCCCC"/>
<path d="M261.074 341.715L257.148 291.164C256.852 287.348 259.717 284.004 263.535 283.708L274.094 282.889C277.912 282.593 281.259 285.456 281.555 289.271L285.481 339.822C285.778 343.637 282.913 346.982 279.095 347.278L268.535 348.097C264.718 348.393 261.37 345.53 261.074 341.715Z" fill="#3F3D56"/>
<path d="M289.019 562.432L282.757 519.733L270.788 479.439L267.476 468.409C262.196 465.39 255.736 469.705 256.509 475.735L257.12 480.499L269.089 520.793L275.351 563.492" fill="#CCCCCC"/>
<path d="M686.975 557.478L-205.784 569.043L-205.758 571L687 559.435L686.975 557.478Z" fill="#CCCCCC"/>
<path d="M208.411 371.166C206.639 368.18 198.973 371.377 197.564 368.667C196.159 365.967 203.282 361.853 207.351 352.455C208.085 350.76 212.71 340.08 209.286 336.784C202.797 330.537 173.103 356.316 162.711 347.88C160.43 346.029 158.837 342.333 151.935 336.332C149.189 333.945 147.528 332.867 145.921 333.268C143.641 333.837 143.461 336.887 141.016 342.883C137.349 351.875 135.18 351.332 133.044 358.506C131.458 363.832 131.82 366.928 129.954 367.531C127.313 368.385 124.882 362.736 121.535 363.242C118.12 363.758 116.055 370.335 115.403 375.259C114.179 384.501 117.575 390.599 119.458 397.011C121.503 403.979 122.717 414.576 117.993 429.578L71.2365 561.222C81.559 534.209 111.448 460.159 124.007 432.642C127.632 424.698 131.635 416.641 139.855 413.461C147.769 410.399 158.637 412.227 172.493 408.891C174.111 408.502 178.602 407.36 179.167 404.721C179.635 402.539 176.993 401.321 177.399 399.277C177.943 396.536 183.138 396.502 189.521 393.339C194.022 391.109 196.826 388.457 199.237 386.176C199.964 385.489 210.77 375.141 208.411 371.166H208.411L208.411 371.166Z" fill="#F2F2F2"/>
<path d="M24.4557 440.469C22.4779 440.476 21.8362 445.159 20.0986 445.068C18.3672 444.978 18.4017 440.297 14.96 435.59C14.3393 434.741 10.4279 429.391 7.82138 430.119C2.88096 431.5 6.9745 453.501 -0.167281 456.164C-1.73457 456.749 -4.0096 456.464 -8.94831 458.118C-10.9131 458.775 -11.9215 459.279 -12.1882 460.183C-12.5666 461.465 -11.121 462.434 -8.88156 465.363C-5.52304 469.756 -6.41546 470.663 -3.50826 473.78C-1.35007 476.095 0.275241 476.811 0.0330105 477.9C-0.309672 479.442 -3.78555 479.004 -4.5028 480.791C-5.23465 482.615 -2.59997 485.526 -0.369479 487.266C3.81627 490.533 7.79117 490.627 11.4836 491.554C15.4963 492.561 21.0515 495.023 27.0567 501.669L78.2237 562.584C67.9344 549.727 40.1882 513.703 30.2966 499.603C27.4411 495.533 24.6387 491.245 25.4485 486.296C26.2281 481.531 30.2618 476.728 32.6213 468.97C32.897 468.064 33.6318 465.532 32.4986 464.493C31.5617 463.635 30.2014 464.579 29.3147 463.79C28.1254 462.732 29.6076 460.175 29.8959 456.132C30.0992 453.281 29.6056 451.14 29.1811 449.299C29.0531 448.744 27.0886 440.458 24.4558 440.469V440.469H24.4557Z" fill="#F2F2F2"/>
<path d="M63.9137 449.32L62.722 438.69L63.2665 437.884C65.7859 434.158 67.07 430.519 67.0854 427.064C67.0879 426.515 67.0622 425.966 67.0366 425.406C66.9338 423.189 66.8055 420.433 68.2436 417.22C69.05 415.428 71.3152 411.281 74.7206 411.794C75.6374 411.923 76.3309 412.344 76.8573 412.836C76.9344 412.713 77.014 412.59 77.0987 412.457C78.1594 410.84 78.9992 410.147 79.8082 409.48C80.4296 408.966 81.0717 408.438 82.0784 407.185C82.5201 406.636 82.8643 406.154 83.1545 405.748C84.0355 404.521 85.1859 403.059 87.2148 403.084C89.3823 403.187 90.5175 404.978 91.27 406.164C92.6131 408.278 93.2218 409.803 93.625 410.814C93.7714 411.184 93.9383 411.599 94.0231 411.728C94.7216 412.754 100.4 411.794 102.539 411.445C107.344 410.645 111.502 409.952 113.215 412.98C114.443 415.146 113.531 418.01 110.424 421.721C109.455 422.876 108.425 423.754 107.511 424.441C108.269 424.893 108.947 425.586 109.222 426.674C109.869 429.251 107.652 431.833 102.637 434.358C101.391 434.989 99.7142 435.831 97.3643 436.236C96.2574 436.426 95.261 436.473 94.4084 436.498C94.3903 436.991 94.2748 437.525 93.9743 438.074C93.0934 439.691 91.2598 440.461 88.4964 440.276C85.4556 440.117 82.9517 439.537 80.743 439.029C78.8144 438.587 77.1527 438.213 75.8481 438.3C73.4289 438.495 71.5643 440.43 69.3763 442.94L63.9138 449.32H63.9137H63.9137Z" fill="#F2F2F2"/>
<path d="M69.4415 386.03L59.4542 389.878L58.536 389.556C54.2899 388.066 50.4417 387.748 47.094 388.609C46.5618 388.746 46.0367 388.91 45.5016 389.077C43.3814 389.738 40.7459 390.562 37.2709 389.986C35.3324 389.661 30.7434 388.524 30.3764 385.102C30.2681 384.183 30.4996 383.406 30.843 382.772C30.7042 382.729 30.5648 382.683 30.4141 382.635C28.5801 382.02 27.6963 381.384 26.8452 380.771C26.1907 380.301 25.5161 379.814 24.0485 379.159C23.4048 378.871 22.8505 378.661 22.3844 378.483C20.9735 377.943 19.2657 377.202 18.7759 375.234C18.3255 373.113 19.7716 371.561 20.7284 370.533C22.4347 368.699 23.7559 367.723 24.6324 367.077C24.953 366.842 25.313 366.575 25.4158 366.461C26.2323 365.525 23.8629 360.28 22.9825 358.301C20.9886 353.859 19.2632 350.016 21.7601 347.592C23.5454 345.856 26.5489 346.011 30.9293 348.073C32.2928 348.716 33.4036 349.489 34.3013 350.198C34.5464 349.351 35.0451 348.52 36.0288 347.979C38.3588 346.7 41.42 348.187 45.1367 352.395C46.0637 353.438 47.304 354.846 48.2925 357.015C48.7571 358.036 49.0545 358.988 49.2957 359.805C49.7772 359.698 50.3232 359.674 50.9311 359.825C52.7196 360.267 53.93 361.844 54.452 364.562C55.0693 367.541 55.143 370.109 55.2113 372.373C55.2733 374.349 55.332 376.05 55.7475 377.289C56.5499 379.578 58.8959 380.889 61.8805 382.368L69.4417 386.03L69.4415 386.03V386.03Z" fill="#F2F2F2"/>
<path d="M63.9137 354.714L62.722 344.084L63.2665 343.278C65.7859 339.552 67.07 335.913 67.0854 332.458C67.0879 331.909 67.0622 331.36 67.0366 330.8C66.9338 328.583 66.8055 325.827 68.2436 322.614C69.05 320.822 71.3152 316.675 74.7206 317.188C75.6374 317.317 76.3309 317.738 76.8573 318.23C76.9344 318.107 77.014 317.984 77.0987 317.851C78.1594 316.234 78.9992 315.541 79.8082 314.874C80.4296 314.36 81.0717 313.832 82.0784 312.579C82.5201 312.03 82.8643 311.548 83.1545 311.142C84.0355 309.915 85.1859 308.453 87.2148 308.478C89.3823 308.581 90.5175 310.372 91.27 311.558C92.6131 313.673 93.2218 315.197 93.625 316.208C93.7714 316.578 93.9383 316.993 94.0231 317.122C94.7216 318.148 100.4 317.188 102.539 316.839C107.344 316.039 111.502 315.346 113.215 318.374C114.443 320.54 113.531 323.404 110.424 327.115C109.455 328.27 108.425 329.148 107.511 329.835C108.269 330.287 108.947 330.98 109.222 332.068C109.869 334.645 107.652 337.227 102.637 339.752C101.391 340.383 99.7142 341.225 97.3643 341.63C96.2574 341.82 95.261 341.867 94.4084 341.892C94.3903 342.385 94.2748 342.919 93.9743 343.468C93.0934 345.085 91.2598 345.855 88.4964 345.67C85.4556 345.511 82.9517 344.931 80.743 344.423C78.8144 343.981 77.1527 343.607 75.8481 343.694C73.4289 343.889 71.5643 345.824 69.3763 348.334L63.9138 354.714H63.9137H63.9137Z" fill="#F2F2F2"/>
<path d="M74.7976 561.049L72.5684 559.652L72.0291 557.081L72.5684 559.652L69.9694 559.95C69.9283 559.709 69.7871 559.155 69.574 558.287C68.4106 553.534 64.8639 539.07 61.9054 516.291C59.8405 500.39 58.672 484.043 58.4306 467.695C58.1892 451.322 58.9648 438.926 59.5863 428.963C60.0562 421.449 60.6264 414.294 61.1862 407.324C62.6758 388.702 64.0806 371.113 63.0353 351.639C62.8042 347.292 62.3187 338.243 57.0283 328.614C53.9593 323.029 49.7321 318.071 44.4622 313.883L47.7392 309.767C53.5561 314.396 58.2328 319.888 61.6408 326.089C67.5065 336.765 68.0356 346.625 68.2898 351.362C69.353 371.18 67.9329 388.939 66.4279 407.74C65.8731 414.684 65.303 421.809 64.8356 429.292C64.2192 439.162 63.4514 451.45 63.6902 467.613C63.9265 483.765 65.0821 499.913 67.1187 515.614C70.0413 538.105 73.5367 552.354 74.6846 557.035C75.2959 559.535 75.4242 560.058 74.7976 561.049V561.049L74.7976 561.049Z" fill="#F2F2F2"/>
<path d="M34.8161 322.234C34.6004 322.234 34.3821 322.229 34.1613 322.213C29.6824 321.972 25.5348 319.293 21.8314 314.253C20.0954 311.881 19.2068 309.176 17.4347 303.782C17.1599 302.95 15.8244 298.731 15.0129 292.926C14.4812 289.133 14.548 287.547 15.3005 286.146C16.1352 284.585 17.4861 283.497 19.0064 282.763C18.9397 282.26 18.9935 281.742 19.2119 281.213C20.1082 279.022 22.4914 279.309 23.7807 279.448C24.433 279.53 25.2471 279.638 26.1255 279.591C27.5072 279.525 28.2494 279.114 29.3742 278.498C30.4503 277.908 31.7883 277.174 33.7735 276.768C37.6874 275.952 40.967 277.061 42.0482 277.425C47.7367 279.319 50.5411 283.739 53.7873 288.856C54.4345 289.882 56.656 293.619 58.1224 298.741C59.1805 302.437 59.0316 304.079 58.7131 305.301C58.0659 307.811 56.5378 309.248 52.6573 312.42C48.6047 315.741 46.5708 317.404 44.8244 318.415C40.759 320.761 38.2061 322.234 34.8162 322.234V322.234H34.8161Z" fill="#F2F2F2"/>
</g>
<defs>
<clipPath id="clip0_5_712">
<rect width="953" height="571" fill="white" transform="translate(-266)"/>
</clipPath>
</defs>
</svg>
