<svg width="781" height="449" viewBox="0 0 781 449" fill="none" xmlns="http://www.w3.org/2000/svg">
<g clip-path="url(#clip0_5_798)">
<path d="M672.418 446.056C672.497 445.82 680.123 422.228 666.626 401.176L665.248 402.059C678.313 422.438 670.941 445.31 670.865 445.539L672.418 446.056Z" fill="#0287E7"/>
<path d="M656.974 404.204C657.265 405.583 657.825 406.891 658.621 408.053C659.418 409.216 660.435 410.21 661.616 410.98C662.797 411.749 664.118 412.278 665.503 412.537C666.888 412.796 668.311 412.78 669.69 412.489C671.069 412.198 672.378 411.639 673.54 410.843C674.703 410.046 675.698 409.029 676.467 407.848C677.237 406.668 677.766 405.347 678.025 403.962C678.284 402.577 678.268 401.154 677.977 399.775C676.754 393.977 666.384 379.545 660.585 380.768C654.785 381.991 655.751 398.405 656.974 404.204Z" fill="#0287E7"/>
<path d="M658.93 431.325C664.106 436.917 673.366 436.766 673.366 436.766C673.366 436.766 674.234 427.547 669.058 421.954C663.881 416.362 654.622 416.514 654.622 416.514C654.622 416.514 653.754 425.733 658.93 431.325Z" fill="#0287E7"/>
<path d="M737.383 447.693C737.568 447.136 755.565 391.461 723.713 341.78L720.461 343.864C751.294 391.956 733.897 445.933 733.718 446.473L737.383 447.693Z" fill="#0287E7"/>
<path d="M700.937 348.924C702.324 355.495 706.265 361.245 711.892 364.91C717.52 368.576 724.373 369.856 730.944 368.471C737.516 367.085 743.268 363.146 746.936 357.521C750.603 351.896 751.886 345.044 750.502 338.473C747.615 324.789 723.144 290.731 709.457 293.617C695.77 296.503 698.05 335.24 700.937 348.924Z" fill="#0287E7"/>
<path d="M705.552 412.929C717.767 426.126 739.619 425.768 739.619 425.768C739.619 425.768 741.667 404.013 729.452 390.815C717.237 377.617 695.384 377.975 695.384 377.975C695.384 377.975 693.336 399.731 705.552 412.929Z" fill="#0287E7"/>
<path d="M432.778 443.501L420.835 438.473L412.642 378.613H303.539L294.659 438.228L283.974 443.57C283.463 443.825 283.053 444.246 282.811 444.764C282.568 445.281 282.508 445.865 282.639 446.422C282.771 446.978 283.086 447.473 283.534 447.828C283.982 448.183 284.537 448.376 285.109 448.376H431.794C432.38 448.376 432.947 448.173 433.401 447.802C433.854 447.431 434.165 446.915 434.281 446.341C434.397 445.767 434.311 445.17 434.037 444.652C433.763 444.135 433.318 443.728 432.778 443.501Z" fill="#E6E6E6"/>
<path d="M626.661 386.577H90.718C87.9061 386.57 85.2115 385.449 83.2253 383.459C81.2392 381.469 80.1238 378.772 80.1238 375.961V300.399H637.255V375.961C637.255 378.772 636.14 381.469 634.154 383.459C632.168 385.449 629.473 386.57 626.661 386.577Z" fill="#CCCCCC"/>
<path d="M637.816 336.111H79.6346V12.7975C79.6385 9.40455 80.9884 6.15165 83.388 3.75248C85.7877 1.35332 89.0412 0.00380308 92.4348 0H625.015C628.409 0.00380085 631.662 1.35331 634.062 3.75247C636.462 6.15164 637.812 9.40454 637.816 12.7975V336.111Z" fill="#3F3D56"/>
<path d="M604.481 23.4653H112.971C110.355 23.4686 107.847 24.5097 105.998 26.3599C104.149 28.2102 103.11 30.7185 103.109 33.3341V302.778C103.11 305.393 104.149 307.901 105.998 309.752C107.847 311.602 110.355 312.643 112.971 312.646H604.481C607.097 312.642 609.604 311.6 611.453 309.75C613.302 307.9 614.341 305.393 614.344 302.778V33.3341C614.341 30.7189 613.302 28.2114 611.453 26.3614C609.604 24.5114 607.097 23.4699 604.481 23.4653Z" fill="white"/>
<path d="M200.095 23.4653V312.646H112.971C110.355 312.643 107.847 311.602 105.998 309.752C104.149 307.901 103.11 305.393 103.109 302.778V33.3341C103.11 30.7185 104.149 28.2102 105.998 26.3599C107.847 24.5097 110.355 23.4686 112.971 23.4653H200.095Z" fill="#F0F0F0"/>
<path d="M128.219 169.55C127.238 169.327 126.22 169.321 125.237 169.534C124.254 169.746 123.33 170.172 122.529 170.78C121.728 171.389 121.07 172.165 120.602 173.056C120.134 173.946 119.867 174.927 119.819 175.932L96.3682 182.845L106.076 191.039L126.858 183.218C128.551 183.186 130.173 182.534 131.418 181.386C132.663 180.238 133.443 178.673 133.61 176.989C133.778 175.304 133.322 173.616 132.328 172.245C131.335 170.874 129.872 169.915 128.219 169.55H128.219Z" fill="#FFB6B6"/>
<path d="M33.465 221.574C31.1466 221.571 28.9047 220.744 27.1389 219.242C25.3731 217.74 24.1983 215.66 23.824 213.372C23.4497 211.085 23.9001 208.739 25.0951 206.752C26.29 204.766 28.1518 203.268 30.3483 202.527L77.8706 186.488L114.94 172.986L119.489 188.906L86.7645 210.466L35.5104 221.358C34.838 221.501 34.1525 221.573 33.465 221.574Z" fill="#0287E7"/>
<path d="M63.204 440.896H69.876L73.0508 415.165H63.2024L63.204 440.896Z" fill="#FFB6B6"/>
<path d="M61.5018 438.719L74.6421 438.718H74.6426C76.8635 438.718 78.9934 439.6 80.5638 441.17C82.1342 442.74 83.0165 444.87 83.0167 447.09V447.363L61.5022 447.363L61.5018 438.719Z" fill="#2F2E41"/>
<path d="M12.0445 440.896H18.7165L21.8913 415.165H12.0437L12.0445 440.896Z" fill="#FFB6B6"/>
<path d="M10.3425 438.719L23.4828 438.718H23.4833C25.7042 438.718 27.8341 439.6 29.4045 441.17C30.9749 442.74 31.8572 444.87 31.8574 447.09V447.363L10.3429 447.363L10.3425 438.719Z" fill="#2F2E41"/>
<path d="M11.9784 286.551C8.92491 293.663 8.25662 301.572 10.0736 309.095L8.1687 436.738H22.8227L31.0271 366.542L44.6333 320.289L59.328 356.203V431.054L73.4784 430.208L81.0979 350.761L72.3899 294.169L11.9784 286.551Z" fill="#2F2E41"/>
<path d="M65.5868 187.243L53.0691 183.434L49.8036 176.904H33.7248L29.6665 183.978C29.6665 183.978 13.339 189.964 12.7948 218.804C12.2505 247.644 10.0735 293.897 10.0735 293.897L74.4533 303.074L65.5868 187.243Z" fill="#0287E7"/>
<path d="M84.0696 297.909C84.4918 296.997 84.7088 296.002 84.7053 294.997C84.7017 293.991 84.4776 292.999 84.0489 292.089C83.6201 291.179 82.9971 290.375 82.2236 289.732C81.4502 289.089 80.5452 288.623 79.5724 288.368L77.6853 263.996L67.6504 271.787L70.9808 293.736C70.6601 295.399 70.9605 297.121 71.825 298.577C72.6895 300.033 74.0581 301.121 75.6714 301.635C77.2848 302.15 79.0308 302.055 80.5786 301.368C82.1265 300.681 83.3686 299.451 84.0696 297.909H84.0696Z" fill="#FFB6B6"/>
<path d="M66.9482 285.348L52.6598 248.861V196.471C52.6598 193.976 53.6139 191.575 55.3267 189.76C57.0395 187.945 59.3815 186.853 61.8731 186.708C64.3647 186.563 66.8175 187.376 68.7291 188.981C70.6408 190.585 71.8667 192.859 72.1559 195.338L77.9669 245.149L83.469 284.208L66.9482 285.348Z" fill="#0287E7"/>
<path d="M44.8486 168.434C53.7228 168.434 60.9167 161.241 60.9167 152.369C60.9167 143.496 53.7228 136.303 44.8486 136.303C35.9744 136.303 28.7805 143.496 28.7805 152.369C28.7805 161.241 35.9744 168.434 44.8486 168.434Z" fill="#FFB9B9"/>
<path d="M45.9008 147.485C45.149 148.45 44.1184 149.321 43.9529 150.533C43.8302 151.431 44.2226 152.318 44.26 153.224C44.263 154.138 43.9174 155.018 43.2936 155.686C42.6697 156.354 41.8147 156.759 40.9026 156.819C40.2673 156.019 39.3493 155.495 38.3381 155.352C37.8349 155.295 37.3267 155.401 36.8881 155.655C36.4496 155.908 36.1039 156.295 35.9019 156.76C35.4247 158.107 36.5292 159.476 36.7068 160.895C36.7304 161.944 36.5606 162.989 36.2059 163.977C35.7988 165.605 35.69 167.327 34.9757 168.845C34.2614 170.363 32.6731 171.669 31.029 171.333C29.6465 171.051 28.711 169.712 28.3243 168.355C27.9376 166.999 27.955 165.56 27.6752 164.177C26.7659 159.684 22.8978 156.355 21.3802 152.03C19.4356 146.487 21.7717 140.147 25.7978 135.869C27.4256 133.995 29.5504 132.619 31.9269 131.901C34.4359 131.263 37.0886 131.722 39.6631 131.449C42.4164 131.157 45.0043 130.038 47.6801 129.327C50.3559 128.616 53.3446 128.348 55.7769 129.671C57.4733 130.593 58.7018 132.184 60.2824 133.293C62.0944 134.555 64.2913 135.143 66.4916 134.955L63.8641 136.103C64.8698 137.026 66.0844 137.691 67.4037 138.041C66.3299 138.892 65.0017 139.359 63.6316 139.365C63.9174 139.88 64.3056 140.331 64.7724 140.69C65.2393 141.049 65.7747 141.308 66.3458 141.452C64.3507 142.389 62.2325 143.348 60.0387 143.137C58.964 143.033 57.9369 142.651 56.8754 142.455C54.6127 142.036 52.2891 142.47 50.0291 142.904C48.8423 143.131 47.3858 143.35 46.7865 144.49C46.2875 145.441 46.6692 146.499 45.9008 147.485Z" fill="#2F2E41"/>
<path d="M151.602 193.685C165.759 193.685 177.235 182.211 177.235 168.056C177.235 153.901 165.759 142.427 151.602 142.427C137.444 142.427 125.968 153.901 125.968 168.056C125.968 182.211 137.444 193.685 151.602 193.685Z" fill="#0287E7"/>
<path d="M166.982 168.056H153.14V154.216H150.063V168.056H136.221V171.132H150.063V184.972H153.14V171.132H166.982V168.056Z" fill="white"/>
<path d="M369.888 57.2883C369.098 57.2892 368.34 57.6035 367.781 58.1624C367.222 58.7213 366.907 59.479 366.907 60.2694V110.184C366.907 110.975 367.222 111.733 367.781 112.292C368.34 112.851 369.098 113.165 369.888 113.166H571.147C571.937 113.165 572.695 112.851 573.254 112.292C573.813 111.733 574.127 110.975 574.128 110.184V60.2694C574.127 59.479 573.813 58.7213 573.254 58.1624C572.695 57.6035 571.937 57.2892 571.147 57.2883H369.888Z" fill="white"/>
<path d="M369.888 57.2883C369.098 57.2892 368.34 57.6035 367.781 58.1624C367.222 58.7213 366.907 59.479 366.907 60.2694V110.184C366.907 110.975 367.222 111.733 367.781 112.292C368.34 112.851 369.098 113.165 369.888 113.166H571.147C571.937 113.165 572.695 112.851 573.254 112.292C573.813 111.733 574.127 110.975 574.128 110.184V60.2694C574.127 59.479 573.813 58.7213 573.254 58.1624C572.695 57.6035 571.937 57.2892 571.147 57.2883H369.888Z" fill="#E6E6E6"/>
<path d="M370.261 109.812H570.774V60.6421H370.261V109.812Z" fill="white"/>
<path d="M393.058 74.7932C392.366 74.7932 391.703 75.068 391.214 75.5572C390.724 76.0464 390.449 76.7099 390.449 77.4017C390.449 78.0935 390.724 78.7569 391.214 79.2461C391.703 79.7353 392.366 80.0101 393.058 80.0101H547.969C548.312 80.0103 548.651 79.943 548.967 79.812C549.284 79.681 549.572 79.489 549.814 79.2469C550.056 79.0048 550.249 78.7173 550.38 78.4009C550.511 78.0845 550.579 77.7453 550.579 77.4028C550.579 77.0602 550.512 76.721 550.381 76.4045C550.25 76.088 550.058 75.8003 549.816 75.558C549.574 75.3157 549.286 75.1234 548.97 74.9922C548.653 74.861 548.314 74.7934 547.971 74.7932H393.058Z" fill="#E4E4E4"/>
<path d="M393.058 90.4438C392.367 90.4451 391.705 90.7204 391.217 91.2095C390.728 91.6985 390.454 92.3613 390.454 93.0523C390.454 93.7433 390.728 94.4061 391.217 94.8951C391.705 95.3842 392.367 95.6595 393.058 95.6607H547.969C548.661 95.6623 549.325 95.3889 549.816 94.9008C550.306 94.4128 550.582 93.7499 550.584 93.0581C550.585 92.3663 550.312 91.7022 549.824 91.212C549.336 90.7217 548.673 90.4454 547.981 90.4438H393.058Z" fill="#E4E4E4"/>
<path d="M229.934 141.983C229.143 141.984 228.385 142.298 227.826 142.857C227.267 143.416 226.953 144.174 226.952 144.964V194.879C226.953 195.669 227.267 196.427 227.826 196.986C228.385 197.545 229.143 197.86 229.934 197.86H431.192C431.983 197.86 432.74 197.545 433.299 196.986C433.858 196.427 434.173 195.669 434.174 194.879V144.964C434.173 144.174 433.858 143.416 433.299 142.857C432.74 142.298 431.983 141.984 431.192 141.983H229.934Z" fill="white"/>
<path d="M229.934 141.983C229.143 141.984 228.385 142.298 227.826 142.857C227.267 143.416 226.953 144.174 226.952 144.964V194.879C226.953 195.669 227.267 196.427 227.826 196.986C228.385 197.545 229.143 197.86 229.934 197.86H431.192C431.983 197.86 432.74 197.545 433.299 196.986C433.858 196.427 434.173 195.669 434.174 194.879V144.964C434.173 144.174 433.858 143.416 433.299 142.857C432.74 142.298 431.983 141.984 431.192 141.983H229.934Z" fill="#E6E6E6"/>
<path d="M230.306 194.506H430.819V145.337H230.306V194.506Z" fill="white"/>
<path d="M253.104 159.488C252.412 159.488 251.748 159.763 251.259 160.252C250.77 160.741 250.495 161.404 250.495 162.096C250.495 162.788 250.77 163.452 251.259 163.941C251.748 164.43 252.412 164.705 253.104 164.705H408.015C408.357 164.705 408.696 164.638 409.013 164.507C409.33 164.376 409.617 164.184 409.86 163.941C410.102 163.699 410.294 163.412 410.426 163.095C410.557 162.779 410.624 162.44 410.625 162.097C410.625 161.755 410.557 161.416 410.426 161.099C410.295 160.783 410.103 160.495 409.861 160.253C409.619 160.01 409.332 159.818 409.015 159.687C408.699 159.556 408.359 159.488 408.017 159.488H253.104Z" fill="#E4E4E4"/>
<path d="M253.104 175.138C252.413 175.14 251.75 175.415 251.262 175.904C250.774 176.393 250.5 177.056 250.5 177.747C250.5 178.438 250.774 179.101 251.262 179.59C251.75 180.079 252.413 180.354 253.104 180.355H408.015C408.706 180.357 409.371 180.084 409.861 179.595C410.351 179.107 410.628 178.444 410.629 177.753C410.631 177.061 410.357 176.397 409.869 175.907C409.381 175.416 408.718 175.14 408.026 175.138H253.104Z" fill="#E4E4E4"/>
<path d="M475.252 275.95C476.149 275.851 477.013 275.557 477.783 275.089C478.553 274.62 479.211 273.988 479.711 273.238C480.211 272.487 480.54 271.637 480.675 270.745C480.811 269.854 480.749 268.944 480.494 268.079L498.331 255.341L487.701 251.248L472.393 263.972C470.968 264.496 469.785 265.524 469.068 266.862C468.35 268.2 468.149 269.754 468.502 271.231C468.854 272.707 469.736 274.003 470.98 274.873C472.224 275.743 473.744 276.126 475.252 275.95Z" fill="#FFB7B7"/>
<path d="M485.155 267.56L479.238 257.456L479.363 257.313L503.237 230.138L521.773 198.533L537.87 200.584L538.107 205.448L538.059 205.521L512.486 243.957L512.459 243.98L485.155 267.56Z" fill="#3F3D56"/>
<path d="M564.033 438.541L554.931 438.541L550.6 403.436L564.035 403.437L564.033 438.541Z" fill="#FFB7B7"/>
<path d="M566.355 447.363L537.004 447.362V446.991C537.004 443.962 538.208 441.057 540.35 438.915C542.493 436.773 545.398 435.569 548.428 435.569H548.429L566.356 435.57L566.355 447.363Z" fill="#2F2E41"/>
<path d="M485.692 438.243L476.838 436.13L480.78 400.979L493.847 404.099L485.692 438.243Z" fill="#FFB7B7"/>
<path d="M485.901 447.363L457.353 440.548L457.439 440.187C458.143 437.24 459.988 434.694 462.57 433.108C465.151 431.522 468.257 431.026 471.204 431.729L471.204 431.729L488.641 435.892L485.901 447.363Z" fill="#2F2E41"/>
<path d="M521.069 182.483V167.164C521.069 161.719 523.232 156.498 527.083 152.648C530.933 148.798 536.156 146.635 541.601 146.635C547.046 146.635 552.269 148.798 556.119 152.648C559.97 156.498 562.133 161.719 562.133 167.164V182.483C562.132 183.214 561.841 183.915 561.324 184.432C560.807 184.949 560.106 185.24 559.375 185.241H523.827C523.096 185.24 522.395 184.949 521.878 184.432C521.361 183.915 521.07 183.214 521.069 182.483Z" fill="#2F2E41"/>
<path d="M536.534 185.008C544.848 185.008 551.587 178.27 551.587 169.958C551.587 161.645 544.848 154.907 536.534 154.907C528.22 154.907 521.481 161.645 521.481 169.958C521.481 178.27 528.22 185.008 536.534 185.008Z" fill="#FFB7B7"/>
<path d="M516.212 168.389C516.217 164.084 517.93 159.957 520.974 156.912C524.019 153.868 528.148 152.155 532.454 152.151H535.518C539.824 152.156 543.953 153.868 546.997 156.912C550.042 159.957 551.755 164.084 551.76 168.389V168.696H545.284L543.075 162.512L542.633 168.696H539.286L538.171 165.576L537.949 168.696H516.212V168.389Z" fill="#2F2E41"/>
<path d="M545.314 249.393L506.987 247.935L504.844 222.864C503.192 218.276 503.165 214.336 504.765 211.154C506.141 208.541 508.452 206.544 511.237 205.561L519.624 195.433C520.703 194.131 522.058 193.085 523.591 192.371C525.124 191.657 526.796 191.292 528.487 191.303L550.277 191.452C550.802 191.136 553.988 189.517 560.271 192.24C567.087 195.194 565.504 205.454 565.487 205.557L565.472 205.653L565.397 205.717L550.902 217.92L545.314 249.393Z" fill="#3F3D56"/>
<path d="M507.292 245.241L489.162 278.289L475.417 428.642L490.948 433.384L518.437 315.769L550.34 430.047L568.955 430.513L556.28 298.636L545.203 247.577L507.292 245.241Z" fill="#2F2E41"/>
<path d="M389.957 220.744C389.204 220.501 388.387 220.567 387.682 220.926C386.978 221.285 386.446 221.909 386.201 222.661L370.806 270.143C370.563 270.895 370.628 271.713 370.988 272.417C371.347 273.121 371.971 273.654 372.723 273.899L564.173 335.95C564.925 336.193 565.743 336.127 566.447 335.768C567.152 335.409 567.684 334.785 567.929 334.033L583.324 286.551C583.567 285.798 583.502 284.981 583.142 284.277C582.783 283.573 582.159 283.04 581.407 282.796L389.957 220.744Z" fill="white"/>
<path d="M389.957 220.744C389.204 220.501 388.387 220.567 387.682 220.926C386.978 221.285 386.446 221.909 386.201 222.661L370.806 270.143C370.563 270.895 370.628 271.713 370.988 272.417C371.347 273.121 371.971 273.654 372.723 273.899L564.173 335.95C564.925 336.193 565.743 336.127 566.447 335.768C567.152 335.409 567.684 334.785 567.929 334.033L583.324 286.551C583.567 285.798 583.502 284.981 583.142 284.277C582.783 283.573 582.159 283.04 581.407 282.796L389.957 220.744Z" fill="#E6E6E6"/>
<path d="M374.112 270.823L564.853 332.644L580.018 285.871L389.277 224.05L374.112 270.823Z" fill="white"/>
<path d="M406.599 244.54C405.941 244.327 405.225 244.384 404.609 244.699C403.993 245.013 403.527 245.559 403.314 246.217C403.101 246.875 403.157 247.591 403.472 248.207C403.786 248.823 404.332 249.289 404.99 249.502L552.351 297.264C552.677 297.37 553.021 297.411 553.363 297.384C553.705 297.358 554.038 297.264 554.343 297.108C554.649 296.953 554.921 296.739 555.143 296.478C555.366 296.217 555.535 295.915 555.641 295.589C555.747 295.263 555.787 294.92 555.76 294.578C555.733 294.236 555.639 293.903 555.483 293.598C555.327 293.292 555.113 293.021 554.852 292.798C554.591 292.576 554.289 292.407 553.962 292.302L553.96 292.301L406.599 244.54Z" fill="#0287E7"/>
<path d="M401.772 259.428C401.114 259.216 400.399 259.274 399.784 259.589C399.169 259.904 398.704 260.449 398.491 261.107C398.278 261.764 398.334 262.479 398.647 263.094C398.961 263.71 399.506 264.176 400.163 264.391L547.524 312.152C548.182 312.367 548.898 312.312 549.515 311.998C550.132 311.685 550.599 311.14 550.814 310.482C551.029 309.825 550.974 309.109 550.661 308.492C550.347 307.875 549.802 307.408 549.144 307.193L549.133 307.189L401.772 259.428Z" fill="#0287E7"/>
<path d="M555.728 298.743C556.399 298.141 556.93 297.399 557.283 296.569C557.637 295.74 557.804 294.843 557.773 293.942C557.742 293.041 557.514 292.158 557.104 291.354C556.695 290.551 556.114 289.847 555.404 289.292L562.481 268.551L551.457 271.415L546.426 290.672C545.573 291.928 545.21 293.453 545.407 294.958C545.603 296.463 546.345 297.844 547.492 298.839C548.638 299.834 550.11 300.373 551.628 300.356C553.146 300.338 554.605 299.764 555.728 298.743V298.743Z" fill="#FFB7B7"/>
<path d="M558.89 286.157L548.194 281.389L551.788 245.208L548.443 208.723L562.722 201.016L565.749 204.832L565.752 204.918L567.356 251.054L567.347 251.089L558.89 286.157Z" fill="#3F3D56"/>
<path d="M779.751 449H220.384C220.102 449.006 219.825 448.918 219.597 448.75C219.369 448.583 219.203 448.344 219.125 448.072C219.076 447.887 219.07 447.693 219.108 447.506C219.146 447.318 219.227 447.142 219.343 446.99C219.46 446.838 219.61 446.715 219.782 446.631C219.954 446.546 220.142 446.502 220.334 446.502H779.649C779.947 446.492 780.24 446.582 780.48 446.76C780.72 446.937 780.893 447.191 780.971 447.479C781.012 447.662 781.011 447.851 780.968 448.033C780.926 448.216 780.843 448.386 780.726 448.532C780.609 448.678 780.46 448.796 780.292 448.877C780.123 448.958 779.938 449 779.751 449Z" fill="#CCCCCC"/>
<path d="M146.273 449H-40.7003C-40.9832 449.006 -41.2601 448.918 -41.488 448.75C-41.7158 448.583 -41.8818 448.344 -41.9599 448.072C-42.0087 447.887 -42.0144 447.693 -41.9765 447.506C-41.9387 447.318 -41.8583 447.142 -41.7415 446.99C-41.6247 446.838 -41.4747 446.715 -41.3029 446.631C-41.1312 446.546 -40.9423 446.502 -40.7509 446.502H146.17C146.469 446.492 146.762 446.582 147.002 446.76C147.242 446.937 147.415 447.191 147.493 447.479C147.533 447.662 147.532 447.851 147.49 448.033C147.447 448.216 147.365 448.386 147.247 448.532C147.13 448.678 146.982 448.796 146.813 448.877C146.645 448.958 146.46 449 146.273 449Z" fill="#CCCCCC"/>
</g>
<defs>
<clipPath id="clip0_5_798">
<rect width="823" height="449" fill="white" transform="translate(-42)"/>
</clipPath>
</defs>
</svg>
