<svg width="718" height="596" viewBox="0 0 718 596" fill="none" xmlns="http://www.w3.org/2000/svg">
<g clip-path="url(#clip0_5_664)">
<path d="M424.126 0H215.583C183.148 0 156.855 26.2936 156.855 58.7284V535.272C156.855 567.706 183.148 594 215.583 594H424.126C456.561 594 482.855 567.706 482.855 535.272V58.7284C482.855 26.2936 456.561 0 424.126 0Z" fill="#3F3D56"/>
<path d="M477.355 58.7323V535.272C477.339 549.385 471.725 562.915 461.746 572.894C451.767 582.873 438.238 588.486 424.125 588.502H215.585C201.473 588.486 187.943 582.873 177.964 572.894C167.985 562.915 162.372 549.385 162.355 535.272V58.7323C162.372 44.6199 167.985 31.0901 177.964 21.1111C187.943 11.1321 201.473 5.51866 215.585 5.50232H242.855V14.9223C242.855 19.1869 244.55 23.2768 247.565 26.2923C250.581 29.3079 254.671 31.0021 258.935 31.0023H380.775C385.04 31.0021 389.13 29.3079 392.145 26.2923C395.161 23.2768 396.855 19.1869 396.855 14.9223V5.50232H424.125C438.238 5.51866 451.767 11.1321 461.746 21.1111C471.725 31.0901 477.339 44.6199 477.355 58.7323Z" fill="white"/>
<path d="M155.355 120.5C154.294 120.499 153.278 120.077 152.528 119.327C151.778 118.577 151.356 117.56 151.355 116.5V108.5C151.355 107.439 151.776 106.422 152.526 105.672C153.276 104.921 154.294 104.5 155.355 104.5C156.416 104.5 157.433 104.921 158.183 105.672C158.933 106.422 159.355 107.439 159.355 108.5V116.5C159.354 117.56 158.932 118.577 158.182 119.327C157.432 120.077 156.415 120.499 155.355 120.5Z" fill="#3F3D56"/>
<path d="M155.355 161.521C154.294 161.52 153.278 161.098 152.528 160.349C151.778 159.599 151.356 158.582 151.355 157.521V135.5C151.355 134.439 151.776 133.422 152.526 132.672C153.276 131.921 154.294 131.5 155.355 131.5C156.416 131.5 157.433 131.921 158.183 132.672C158.933 133.422 159.355 134.439 159.355 135.5V157.521C159.354 158.582 158.932 159.599 158.182 160.349C157.432 161.098 156.415 161.52 155.355 161.521Z" fill="#3F3D56"/>
<path d="M155.355 194.5C154.294 194.499 153.278 194.077 152.528 193.327C151.778 192.577 151.356 191.56 151.355 190.5V168.479C151.355 167.418 151.776 166.4 152.526 165.65C153.276 164.9 154.294 164.479 155.355 164.479C156.416 164.479 157.433 164.9 158.183 165.65C158.933 166.4 159.355 167.418 159.355 168.479V190.5C159.354 191.56 158.932 192.577 158.182 193.327C157.432 194.077 156.415 194.499 155.355 194.5Z" fill="#3F3D56"/>
<path d="M483.355 176.5C482.294 176.499 481.278 176.077 480.528 175.327C479.778 174.577 479.356 173.56 479.355 172.5V118.767C479.355 117.706 479.776 116.688 480.526 115.938C481.276 115.188 482.294 114.767 483.355 114.767C484.416 114.767 485.433 115.188 486.183 115.938C486.933 116.688 487.355 117.706 487.355 118.767V172.5C487.354 173.56 486.932 174.577 486.182 175.327C485.432 176.077 484.415 176.499 483.355 176.5Z" fill="#3F3D56"/>
<path d="M328.447 18.3458H297.447C296.784 18.3458 296.148 18.0824 295.68 17.6136C295.211 17.1447 294.947 16.5089 294.947 15.8458C294.947 15.1828 295.211 14.5469 295.68 14.0781C296.148 13.6092 296.784 13.3458 297.447 13.3458H328.447C329.11 13.3458 329.746 13.6092 330.215 14.0781C330.684 14.5469 330.947 15.1828 330.947 15.8458C330.947 16.5089 330.684 17.1447 330.215 17.6136C329.746 18.0824 329.11 18.3458 328.447 18.3458Z" fill="white"/>
<path d="M344.447 17.8458C345.552 17.8458 346.447 16.9504 346.447 15.8458C346.447 14.7413 345.552 13.8458 344.447 13.8458C343.343 13.8458 342.447 14.7413 342.447 15.8458C342.447 16.9504 343.343 17.8458 344.447 17.8458Z" fill="white"/>
<path d="M230.941 29.073H203.941C202.615 29.073 201.343 28.5462 200.405 27.6085C199.467 26.6709 198.941 25.3991 198.941 24.073C198.941 22.7469 199.467 21.4751 200.405 20.5375C201.343 19.5998 202.615 19.073 203.941 19.073H230.941C232.267 19.073 233.539 19.5998 234.476 20.5375C235.414 21.4751 235.941 22.7469 235.941 24.073C235.941 25.3991 235.414 26.6709 234.476 27.6085C233.539 28.5462 232.267 29.073 230.941 29.073Z" fill="#E6E6E6"/>
<path d="M333.355 238.695H306.355C305.029 238.695 303.757 238.168 302.82 237.231C301.882 236.293 301.355 235.021 301.355 233.695C301.355 232.369 301.882 231.097 302.82 230.16C303.757 229.222 305.029 228.695 306.355 228.695H333.355C334.681 228.695 335.953 229.222 336.891 230.16C337.828 231.097 338.355 232.369 338.355 233.695C338.355 235.021 337.828 236.293 336.891 237.231C335.953 238.168 334.681 238.695 333.355 238.695Z" fill="#E6E6E6"/>
<path d="M407.941 28.573C410.426 28.573 412.441 26.5583 412.441 24.073C412.441 21.5877 410.426 19.573 407.941 19.573C405.455 19.573 403.441 21.5877 403.441 24.073C403.441 26.5583 405.455 28.573 407.941 28.573Z" fill="#E6E6E6"/>
<path d="M421.941 28.573C424.426 28.573 426.441 26.5583 426.441 24.073C426.441 21.5877 424.426 19.573 421.941 19.573C419.455 19.573 417.441 21.5877 417.441 24.073C417.441 26.5583 419.455 28.573 421.941 28.573Z" fill="#E6E6E6"/>
<path d="M435.941 28.573C438.426 28.573 440.441 26.5583 440.441 24.073C440.441 21.5877 438.426 19.573 435.941 19.573C433.455 19.573 431.441 21.5877 431.441 24.073C431.441 26.5583 433.455 28.573 435.941 28.573Z" fill="#E6E6E6"/>
<path d="M406.158 308.695H219.425C214.617 308.69 210.008 306.777 206.609 303.378C203.209 299.978 201.297 295.369 201.291 290.561V271.829C201.297 267.021 203.209 262.412 206.609 259.012C210.008 255.613 214.617 253.7 219.425 253.695H406.158C410.965 253.7 415.575 255.613 418.974 259.012C422.374 262.412 424.286 267.021 424.291 271.829V290.561C424.286 295.369 422.374 299.978 418.974 303.378C415.575 306.777 410.965 308.69 406.158 308.695ZM219.425 255.695C215.148 255.7 211.047 257.401 208.022 260.426C204.998 263.451 203.296 267.551 203.291 271.829V290.561C203.296 294.839 204.998 298.94 208.022 301.964C211.047 304.989 215.148 306.69 219.425 306.695H406.158C410.435 306.69 414.536 304.989 417.561 301.964C420.585 298.94 422.287 294.839 422.291 290.561V271.829C422.287 267.551 420.585 263.451 417.561 260.426C414.536 257.401 410.435 255.7 406.158 255.695H219.425Z" fill="#E6E6E6"/>
<path d="M333.355 377.695H306.355C305.029 377.695 303.757 377.168 302.82 376.231C301.882 375.293 301.355 374.021 301.355 372.695C301.355 371.369 301.882 370.097 302.82 369.16C303.757 368.222 305.029 367.695 306.355 367.695H333.355C334.681 367.695 335.953 368.222 336.891 369.16C337.828 370.097 338.355 371.369 338.355 372.695C338.355 374.021 337.828 375.293 336.891 376.231C335.953 377.168 334.681 377.695 333.355 377.695Z" fill="#E6E6E6"/>
<path d="M339.558 522.695H300.153C299.194 522.696 298.244 522.508 297.357 522.142C296.471 521.776 295.666 521.239 294.987 520.561C294.309 519.883 293.77 519.078 293.403 518.192C293.036 517.306 292.847 516.357 292.847 515.398C292.847 514.439 293.036 513.489 293.403 512.603C293.77 511.717 294.309 510.913 294.987 510.235C295.666 509.557 296.471 509.02 297.357 508.654C298.244 508.287 299.194 508.099 300.153 508.1H339.558C341.493 508.1 343.349 508.869 344.718 510.238C346.086 511.606 346.855 513.462 346.855 515.398C346.855 517.333 346.086 519.189 344.718 520.558C343.349 521.926 341.493 522.695 339.558 522.695Z" fill="#0287E7"/>
<path d="M406.158 447.695H219.425C214.617 447.69 210.008 445.777 206.609 442.378C203.209 438.978 201.297 434.369 201.291 429.561V410.829C201.297 406.021 203.209 401.412 206.609 398.012C210.008 394.613 214.617 392.7 219.425 392.695H406.158C410.965 392.7 415.575 394.613 418.974 398.012C422.374 401.412 424.286 406.021 424.291 410.829V429.561C424.286 434.369 422.374 438.978 418.974 442.378C415.575 445.777 410.965 447.69 406.158 447.695ZM219.425 394.695C215.148 394.7 211.047 396.401 208.022 399.426C204.998 402.451 203.296 406.551 203.291 410.829V429.561C203.296 433.839 204.998 437.94 208.022 440.964C211.047 443.989 215.148 445.69 219.425 445.695H406.158C410.435 445.69 414.536 443.989 417.561 440.964C420.585 437.94 422.287 433.839 422.291 429.561V410.829C422.287 406.551 420.585 402.451 417.561 399.426C414.536 396.401 410.435 394.7 406.158 394.695H219.425Z" fill="#E6E6E6"/>
<path d="M440.44 193.5H198.94V195.5H440.44V193.5Z" fill="#E6E6E6"/>
<path d="M434.16 272.865C434.395 274.537 435.273 276.051 436.607 277.085C437.941 278.119 439.625 278.592 441.303 278.403C441.643 278.359 441.979 278.288 442.308 278.188L455.743 296.37L467.367 292.799L446.27 269.882C445.753 268.552 444.81 267.43 443.589 266.692C442.367 265.954 440.936 265.641 439.518 265.802C438.712 265.901 437.933 266.159 437.227 266.559C436.52 266.959 435.899 267.495 435.399 268.135C434.9 268.775 434.531 269.508 434.314 270.29C434.098 271.073 434.037 271.891 434.137 272.697C434.144 272.753 434.152 272.809 434.16 272.865Z" fill="#FFB6B6"/>
<path d="M603.221 400.518C602.021 399.331 601.332 397.722 601.3 396.034C601.267 394.347 601.895 392.713 603.049 391.481C603.287 391.234 603.546 391.008 603.822 390.803L597.27 369.166L607.08 361.979L612.85 392.59C613.607 393.799 613.944 395.225 613.805 396.646C613.667 398.066 613.063 399.401 612.086 400.442C611.525 401.029 610.854 401.499 610.11 401.827C609.367 402.154 608.567 402.332 607.755 402.35C606.943 402.368 606.135 402.226 605.378 401.932C604.621 401.638 603.929 401.198 603.343 400.637C603.302 400.598 603.261 400.558 603.221 400.518Z" fill="#FFB6B6"/>
<path d="M547.623 582.429L537.722 582.428L533.012 544.238L547.625 544.239L547.623 582.429Z" fill="#FFB6B6"/>
<path d="M547.971 592.758L517.524 592.757V592.372C517.525 589.229 518.773 586.215 520.996 583.992C523.218 581.77 526.232 580.521 529.375 580.521H529.376L534.937 576.302L545.314 580.522L547.972 580.522L547.971 592.758Z" fill="#2F2E41"/>
<path d="M590.623 582.429L580.722 582.428L576.012 544.238L590.625 544.239L590.623 582.429Z" fill="#FFB6B6"/>
<path d="M590.971 592.758L560.524 592.757V592.372C560.525 589.229 561.773 586.215 563.996 583.992C566.218 581.77 569.232 580.521 572.375 580.521H572.376L577.937 576.302L588.314 580.522L590.972 580.522L590.971 592.758Z" fill="#2F2E41"/>
<path d="M518.291 377.153C518.291 377.153 507.021 392.864 515.156 420.009C523.291 447.153 518.724 471.421 521.008 476.287C523.291 481.153 527.888 485.774 524.09 489.464C520.291 493.153 518.291 496.153 521.291 497.153C524.291 498.153 534.291 568.153 534.291 568.153L551.291 569.153C551.291 569.153 557.45 536.636 550.871 510.394C550.871 510.394 552.315 491.344 549.303 485.749C546.291 480.153 546.882 485.2 547.087 478.176C547.2 473.097 547.94 468.051 549.291 463.153C550.291 459.153 550.871 418.838 550.871 418.838L572.971 468.636C573.635 470.479 573.884 472.446 573.701 474.397C573.291 477.153 573.288 481.271 573.79 482.712C574.291 484.153 574.85 484.456 574.571 487.304C574.291 490.153 574.291 565.695 574.291 565.695H593.291L602.291 490.153C600.672 488.359 599.325 486.337 598.291 484.153C596.291 480.153 596.214 479.932 597.252 477.043C598.291 474.153 598.291 468.523 598.291 466.838C598.291 465.153 599.33 388.656 586.311 377.404C573.291 366.153 518.291 377.153 518.291 377.153Z" fill="#2F2E41"/>
<path d="M576.638 257.067L557.657 252.149L548.797 239.929L527.756 242.516L523.277 259.184L508.297 267.879C508.297 267.879 516.577 355.45 514.607 360.259C512.638 365.067 505.577 364.67 511.607 370.869C517.638 377.067 518.437 374.571 517.037 381.319C515.638 388.067 505.437 395.209 517.037 395.138C528.638 395.067 598.638 394.067 596.638 386.067C594.638 378.067 594.669 380.099 591.654 375.083C588.638 370.067 586.608 372.87 587.623 365.469C588.638 358.067 587.638 353.067 587.638 349.067C587.638 345.067 584.287 308.719 584.287 308.719L576.638 257.067Z" fill="#3F3D56"/>
<path d="M517.417 266.199C517.417 266.199 498.638 264.067 494.638 273.067C490.638 282.067 480.557 300.808 480.557 300.808C480.557 300.808 472.698 292.586 471.937 288.859C471.291 285.695 470.937 290.98 465.657 285.259C463.291 282.695 465.291 282.695 462.291 281.695L456.291 279.695L446.291 288.695C446.291 288.695 446.096 299.569 451.291 299.695C456.487 299.821 449.291 297.695 456.291 304.695C459.906 308.309 456.591 307.711 462.614 311.389C468.638 315.067 467.958 315.052 469.798 317.06C471.638 319.067 481.512 320.529 481.512 320.529L525.732 296.059L517.417 266.199Z" fill="#3F3D56"/>
<path d="M566.769 260.851C566.769 260.851 574.822 249.052 588.586 264.381C602.349 279.709 612.641 349.685 611.995 352.197C611.349 354.709 607.72 353.268 612.035 357.489C616.349 361.709 619.349 358.709 616.349 361.709C613.349 364.709 607.088 367.532 612.219 368.621C617.349 369.709 597.391 375.7 597.391 375.7C597.391 375.7 594.483 374.638 594.36 367.631C594.291 363.695 596.291 361.695 593.291 360.695C590.291 359.695 593.98 353.017 593.665 351.863C593.349 350.709 574.349 299.709 574.349 299.709L566.769 260.851Z" fill="#3F3D56"/>
<path d="M535.118 237.837C547.851 237.837 558.174 227.515 558.174 214.782C558.174 202.048 547.851 191.726 535.118 191.726C522.385 191.726 512.062 202.048 512.062 214.782C512.062 227.515 522.385 237.837 535.118 237.837Z" fill="#FFB6B6"/>
<path d="M550.291 232.695C544.841 228.435 552.291 209.695 543.291 213.695C543.291 213.695 532.291 206.695 530.081 211.295C527.522 216.621 518.421 214.205 512.831 212.325C513.271 211.304 513.583 210.232 513.761 209.135C512.729 209.948 511.636 210.68 510.491 211.325C509.724 210.915 509.044 210.358 508.491 209.685C507.946 209.061 507.605 208.284 507.514 207.46C507.423 206.636 507.586 205.804 507.981 205.075C508.911 203.645 510.831 203.205 511.961 201.935C512.092 201.756 512.177 201.549 512.21 201.33C512.243 201.111 512.222 200.888 512.149 200.679C512.014 200.168 511.994 199.633 512.09 199.114C512.185 198.594 512.394 198.102 512.701 197.672C513.009 197.242 513.407 196.886 513.868 196.627C514.329 196.369 514.842 196.216 515.369 196.178C515.581 196.185 515.791 196.139 515.981 196.045C516.93 195.464 517.806 194.773 518.591 193.985C517.277 194.048 515.96 194.012 514.651 193.875C514.381 193.845 514.111 193.815 513.841 193.775C514.341 192.602 515.089 191.55 516.033 190.692C516.977 189.834 518.096 189.191 519.311 188.805C521.878 188.029 524.55 187.655 527.231 187.695C528.781 187.645 530.331 187.595 531.871 187.545C535.138 187.313 538.419 187.427 541.661 187.885C545.125 188.517 548.406 189.906 551.27 191.952C554.134 193.999 556.512 196.653 558.231 199.725C561.621 205.875 565.291 225.695 550.291 232.695Z" fill="#2F2E41"/>
<path d="M491.458 341.259L372.608 383.28C369.67 384.315 366.44 384.142 363.629 382.799C360.818 381.457 358.654 379.054 357.612 376.118L337.195 318.371C336.16 315.433 336.333 312.204 337.675 309.392C339.018 306.581 341.421 304.417 344.357 303.375L463.207 261.355C466.145 260.319 469.375 260.492 472.186 261.835C474.997 263.177 477.161 265.58 478.203 268.517L498.62 326.263C499.655 329.201 499.482 332.43 498.14 335.242C496.797 338.053 494.394 340.217 491.458 341.259Z" fill="#0287E7"/>
<path d="M365.191 316.782C357.313 321.966 347.217 318.065 343.686 312.383L344.249 312.063C350.955 307.882 360.915 310.211 365.191 316.782Z" fill="white"/>
<path d="M463.913 331.49C463.093 331.831 462.211 331.998 461.323 331.982C460.435 331.966 459.56 331.767 458.752 331.397C455.37 329.716 453.783 324.733 452.508 320.729C452.137 319.565 451.786 318.464 451.43 317.565L451.424 317.551C450.804 315.768 450.912 313.811 451.725 312.106C452.539 310.401 453.992 309.086 455.77 308.447L471.756 302.795C472.575 302.455 473.456 302.287 474.343 302.303C475.23 302.319 476.105 302.518 476.911 302.887C480.293 304.566 481.881 309.547 483.157 313.549C483.53 314.716 483.881 315.819 484.239 316.72C484.864 318.505 484.757 320.465 483.944 322.173C483.131 323.881 481.676 325.198 479.896 325.839L463.913 331.49Z" fill="white"/>
<path d="M365.954 347.392C365.669 347.505 365.358 347.538 365.056 347.488C364.753 347.438 364.47 347.306 364.237 347.107C363.964 346.868 363.757 346.563 363.636 346.221C363.515 345.88 363.484 345.512 363.546 345.155C363.604 344.847 363.746 344.562 363.956 344.33C364.166 344.098 364.436 343.929 364.736 343.841L370.82 341.69C371.109 341.571 371.425 341.533 371.734 341.582C372.043 341.63 372.332 341.763 372.57 341.966C372.843 342.204 373.05 342.509 373.171 342.851C373.292 343.193 373.322 343.56 373.26 343.918C373.201 344.224 373.059 344.509 372.849 344.741C372.639 344.972 372.37 345.141 372.07 345.229L365.986 347.381L365.954 347.392Z" fill="white"/>
<path d="M362.722 361.197C362.188 361.297 361.637 361.248 361.128 361.058C360.619 360.868 360.172 360.543 359.833 360.118C359.44 359.61 359.183 359.009 359.089 358.373C358.995 357.737 359.066 357.088 359.296 356.487C359.501 355.972 359.844 355.524 360.288 355.192C360.732 354.86 361.26 354.658 361.812 354.607L384.474 347.002C385.017 346.892 385.58 346.934 386.101 347.124C386.621 347.313 387.079 347.643 387.424 348.076C387.818 348.584 388.074 349.185 388.168 349.821C388.262 350.457 388.19 351.106 387.961 351.706C387.754 352.22 387.41 352.666 386.966 352.998C386.522 353.329 385.996 353.531 385.445 353.583L362.782 361.188L362.722 361.197Z" fill="white"/>
<path d="M482.649 281.087L342.043 330.799L342.281 331.471L482.886 281.758L482.649 281.087Z" fill="white"/>
<path d="M460.291 319.695C462.501 319.695 464.291 317.904 464.291 315.695C464.291 313.486 462.501 311.695 460.291 311.695C458.082 311.695 456.291 313.486 456.291 315.695C456.291 317.904 458.082 319.695 460.291 319.695Z" fill="#0287E7"/>
<path d="M473.291 320.695C474.948 320.695 476.291 319.352 476.291 317.695C476.291 316.038 474.948 314.695 473.291 314.695C471.635 314.695 470.291 316.038 470.291 317.695C470.291 319.352 471.635 320.695 473.291 320.695Z" fill="#0287E7"/>
<path fill-rule="evenodd" clip-rule="evenodd" d="M258.871 140.665C258.871 149.955 251.451 155.295 240.651 155.295C235.781 155.279 230.963 154.276 226.491 152.345V139.995C230.851 142.375 236.351 144.145 240.651 144.145C243.561 144.145 245.641 143.365 245.641 140.975C245.641 134.805 225.921 137.085 225.921 122.765C225.921 113.575 232.921 108.075 243.461 108.075C247.865 108.033 252.236 108.845 256.331 110.465V122.655C252.357 120.565 247.951 119.428 243.461 119.335C240.711 119.335 239.051 120.115 239.051 122.135C239.051 127.955 258.821 125.205 258.871 140.665Z" fill="#0287E7"/>
<path fill-rule="evenodd" clip-rule="evenodd" d="M274.081 108.955H283.941V120.015H274.081V138.435C274.081 146.115 282.281 143.725 283.941 143.055V153.585C282.221 154.525 279.111 155.295 274.851 155.295C273.081 155.351 271.317 155.045 269.669 154.396C268.02 153.747 266.521 152.769 265.263 151.522C264.005 150.274 263.015 148.783 262.353 147.14C261.691 145.497 261.37 143.736 261.411 141.965L261.461 100.395L274.131 97.6951L274.081 108.955Z" fill="#0287E7"/>
<path fill-rule="evenodd" clip-rule="evenodd" d="M310.872 108.955V120.895C309.261 120.325 304.072 119.595 301.011 123.595V154.365H288.041V108.955H299.251L300.081 112.795C303.141 107.195 309.211 108.335 310.872 108.955Z" fill="#0287E7"/>
<path fill-rule="evenodd" clip-rule="evenodd" d="M314.041 94.425L327.061 91.675V102.205L314.041 105.015V94.425Z" fill="#0287E7"/>
<path d="M327.061 108.955H314.041V154.365H327.061V108.955Z" fill="#0287E7"/>
<path fill-rule="evenodd" clip-rule="evenodd" d="M354.151 108.075C350.366 108.063 346.722 109.514 343.981 112.125L343.311 108.905H331.891V169.415L344.862 166.665L344.911 151.975C347.51 154.085 350.754 155.239 354.102 155.245C363.391 155.245 371.852 147.775 371.852 131.325C371.801 116.275 363.231 108.075 354.151 108.075ZM351.041 143.835C349.903 143.902 348.764 143.719 347.705 143.297C346.646 142.875 345.692 142.226 344.911 141.395L344.862 122.135C345.637 121.277 346.594 120.604 347.664 120.165C348.733 119.725 349.887 119.53 351.041 119.595C355.761 119.595 359.031 124.885 359.031 131.685C359.031 138.645 355.811 143.835 351.041 143.835L351.041 143.835Z" fill="#0287E7"/>
<path fill-rule="evenodd" clip-rule="evenodd" d="M412.741 131.845C412.741 118.555 406.311 108.075 394.011 108.075C381.661 108.075 374.181 118.555 374.181 131.735C374.181 147.355 383.011 155.245 395.671 155.245C400.672 155.383 405.623 154.222 410.041 151.875V141.495C406.093 143.447 401.735 144.424 397.331 144.345C392.301 144.345 387.831 142.585 387.261 136.465H412.641C412.641 135.785 412.741 133.085 412.741 131.845ZM387.112 126.915C387.112 121.045 390.691 118.605 393.961 118.605C397.122 118.605 400.501 121.045 400.501 126.915H387.112Z" fill="#0287E7"/>
<path d="M1.67111e-05 594.139C-0.000449358 594.296 0.0300203 594.451 0.0896621 594.595C0.149304 594.74 0.23695 594.871 0.347551 594.982C0.458152 595.092 0.589522 595.18 0.734117 595.24C0.878712 595.299 1.03367 595.33 1.19008 595.329H716.48C716.796 595.329 717.098 595.204 717.322 594.981C717.545 594.757 717.67 594.455 717.67 594.139C717.67 593.824 717.545 593.521 717.322 593.298C717.098 593.075 716.796 592.949 716.48 592.949H1.19002C1.03362 592.949 0.878672 592.979 0.734087 593.039C0.589501 593.099 0.458129 593.186 0.347536 593.297C0.236942 593.407 0.149302 593.539 0.0896621 593.683C0.0300222 593.828 -0.000444011 593.983 1.67111e-05 594.139Z" fill="#CCCCCC"/>
<path d="M248.654 568.353C248.079 568.379 247.51 568.228 247.024 567.92C246.537 567.613 246.157 567.163 245.935 566.631C245.713 566.1 245.66 565.514 245.782 564.951C245.905 564.389 246.197 563.878 246.62 563.487L246.812 562.722C246.787 562.661 246.761 562.6 246.736 562.539C246.156 561.17 245.186 560.004 243.946 559.185C242.705 558.367 241.251 557.933 239.765 557.939C238.279 557.944 236.828 558.389 235.594 559.216C234.36 560.044 233.398 561.218 232.829 562.59C230.554 568.068 227.659 573.556 226.946 579.348C226.632 581.908 226.764 584.504 227.337 587.019C221.995 575.365 219.221 562.699 219.203 549.88C219.202 546.663 219.381 543.449 219.738 540.252C220.034 537.631 220.444 535.029 220.969 532.445C223.832 518.427 229.98 505.288 238.907 494.108C243.228 491.75 246.722 488.125 248.919 483.72C249.715 482.137 250.277 480.447 250.589 478.702C250.101 478.766 248.751 471.343 249.119 470.888C248.439 469.857 247.224 469.345 246.482 468.339C242.792 463.337 237.709 464.21 235.056 471.008C229.387 473.869 229.332 478.614 232.81 483.177C235.023 486.08 235.327 490.009 237.269 493.117C237.069 493.373 236.862 493.62 236.662 493.876C233.01 498.571 229.828 503.613 227.16 508.93C227.808 502.974 227.034 496.949 224.9 491.351C222.737 486.134 218.684 481.74 215.114 477.23C210.826 471.812 202.034 474.176 201.278 481.044C201.271 481.11 201.264 481.177 201.257 481.243C201.787 481.543 202.306 481.86 202.814 482.196C203.452 482.622 203.946 483.231 204.232 483.943C204.518 484.655 204.582 485.437 204.416 486.186C204.25 486.935 203.862 487.617 203.302 488.141C202.742 488.666 202.037 489.009 201.279 489.126L201.201 489.138C201.39 491.049 201.724 492.943 202.2 494.803C197.62 512.513 207.507 518.963 221.624 519.253C221.936 519.413 222.239 519.573 222.551 519.725C219.87 527.321 218.189 535.234 217.549 543.264C217.187 548.001 217.208 552.76 217.613 557.495L217.589 557.327C216.566 552.063 213.758 547.313 209.639 543.879C203.52 538.853 194.877 537.002 188.276 532.963C187.575 532.512 186.759 532.272 185.925 532.27C185.092 532.268 184.275 532.504 183.571 532.951C182.868 533.398 182.306 534.037 181.954 534.792C181.601 535.548 181.472 536.388 181.582 537.215C181.591 537.273 181.6 537.332 181.609 537.391C182.593 537.792 183.551 538.253 184.477 538.773C185.008 539.072 185.527 539.39 186.034 539.726C186.672 540.152 187.167 540.761 187.453 541.473C187.739 542.185 187.803 542.967 187.637 543.716C187.471 544.465 187.082 545.146 186.523 545.671C185.963 546.196 185.257 546.539 184.499 546.656L184.421 546.668C184.365 546.676 184.317 546.684 184.262 546.692C185.943 550.706 188.302 554.401 191.237 557.614C194.1 573.075 206.399 574.541 219.555 570.039H219.563C221.006 576.312 223.097 582.417 225.803 588.257H248.096C248.176 588.009 248.248 587.754 248.32 587.506C246.256 587.636 244.185 587.512 242.151 587.138C243.805 585.109 245.459 583.063 247.113 581.034C247.15 580.996 247.185 580.956 247.217 580.914C248.056 579.875 248.903 578.845 249.742 577.806L249.742 577.805C249.787 574.621 249.422 571.444 248.655 568.353L248.654 568.353Z" fill="#F2F2F2"/>
</g>
<defs>
<clipPath id="clip0_5_664">
<rect width="717.67" height="595.329" fill="white"/>
</clipPath>
</defs>
</svg>
