<?xml version="1.0" encoding="utf-8"?>
<!-- Generated by IcoMoon.io -->
<svg version="1.1" xmlns="http://www.w3.org/2000/svg" xmlns:xlink="http://www.w3.org/1999/xlink" width="35" height="96" viewBox="0 0 35 96">
<svg id="icon-next-icon-1" width="35" height="32" viewBox="0 0 35 32" x="0" y="0">
<path d="M8.565 0c-0.958 0-1.853 0.479-2.384 1.276l-5.877 8.816c-0.36 0.54-0.403 1.231-0.113 1.811 3.216 6.432 7.686 12.157 13.146 16.837l2.867 2.457c0.754 0.646 1.866 0.646 2.62 0l2.867-2.457c5.46-4.68 9.93-10.404 13.146-16.837 0.29-0.58 0.247-1.271-0.113-1.811l-5.877-8.816c-0.531-0.797-1.426-1.276-2.384-1.276h-17.896zM8.224 2.638c0.076-0.114 0.204-0.182 0.341-0.182h3.831l-3.136 7.526c-0.072 0.173-0.127 0.352-0.163 0.534-1.152-0.086-2.304-0.189-3.454-0.31l-2.302-0.242 4.883-7.325zM3.233 12.422c2.937 5.387 6.814 10.21 11.453 14.238l-5.118-13.647c-1.396-0.096-2.79-0.217-4.182-0.364l-2.153-0.227zM12.248 13.165l5.265 14.039 5.265-14.039c-3.508 0.16-7.021 0.16-10.529 0zM25.458 13.012l-5.118 13.647c4.639-4.028 8.517-8.851 11.453-14.238l-2.153 0.227c-1.392 0.147-2.787 0.268-4.182 0.364zM31.685 9.963l-2.302 0.242c-1.15 0.121-2.302 0.224-3.454 0.31-0.037-0.182-0.091-0.36-0.163-0.534l-3.136-7.526h3.831c0.137 0 0.265 0.068 0.341 0.182l4.883 7.325zM23.394 10.676c-3.918 0.204-7.844 0.204-11.762 0l3.425-8.22h4.912l3.425 8.22z"></path>
</svg>
<svg id="icon-next-icon-2" width="32" height="32" viewBox="0 0 32 32" x="0" y="32">
<path d="M5.486 5.396c0 1.070 0.343 2.067 0.934 2.906h-1.391c-2.777 0-5.029 2.044-5.029 4.566v3.321c0 1.335 0.992 2.46 2.343 2.8-0.263 3.033-0.111 6.086 0.456 9.088 0.338 1.793 1.942 3.166 3.932 3.368l1.672 0.17c5.049 0.512 10.145 0.512 15.194 0l1.672-0.17c1.991-0.202 3.594-1.575 3.932-3.368 0.567-3.002 0.719-6.055 0.456-9.088 1.351-0.34 2.343-1.465 2.343-2.8v-3.321c0-2.522-2.251-4.566-5.029-4.566h-1.391c0.591-0.839 0.934-1.836 0.934-2.906 0-2.98-2.661-5.396-5.943-5.396-1.838 0-3.481 0.758-4.571 1.948-1.090-1.19-2.733-1.948-4.571-1.948-3.282 0-5.943 2.416-5.943 5.396zM14.629 5.396c0 1.605-1.433 2.906-3.2 2.906s-3.2-1.301-3.2-2.906c0-1.605 1.433-2.906 3.2-2.906s3.2 1.301 3.2 2.906zM20.571 8.302c-1.767 0-3.2-1.301-3.2-2.906s1.433-2.906 3.2-2.906 3.2 1.301 3.2 2.906c0 1.605-1.433 2.906-3.2 2.906zM2.743 12.869c0-1.146 1.023-2.076 2.286-2.076h9.6v5.812h-11.429c-0.252 0-0.457-0.186-0.457-0.415v-3.321zM17.371 19.095h9.543c0.257 2.857 0.117 5.734-0.417 8.562-0.132 0.699-0.757 1.235-1.534 1.314l-1.672 0.17c-1.968 0.2-3.944 0.318-5.921 0.356v-10.401zM17.371 16.605v-5.812h9.6c1.262 0 2.286 0.929 2.286 2.076v3.321c0 0.229-0.205 0.415-0.457 0.415h-11.429zM14.629 19.095v10.401c-1.977-0.038-3.953-0.156-5.921-0.356l-1.672-0.17c-0.776-0.079-1.402-0.614-1.534-1.314-0.534-2.828-0.673-5.705-0.417-8.562h9.543z"></path>
</svg>
<svg id="icon-next-icon-3" width="32" height="32" viewBox="0 0 32 32" x="0" y="64">
<path d="M13.693 4.679c-6.25 0.642-11.126 5.924-11.126 12.344 0 6.854 5.556 12.41 12.41 12.41 6.42 0 11.702-4.875 12.344-11.126h-12.344c-0.709 0-1.284-0.575-1.284-1.284v-12.344zM0 17.023c0-8.272 6.705-14.977 14.977-14.977 0.709 0 1.284 0.575 1.284 1.284v12.41h12.41c0.709 0 1.284 0.575 1.284 1.284 0 8.272-6.706 14.977-14.977 14.977s-14.977-6.706-14.977-14.977z"></path>
<path d="M20.968 2.771v8.261h8.261c-0.964-4.081-4.18-7.297-8.261-8.261zM20.109 0.012c6.197 0.771 11.108 5.683 11.88 11.88 0.117 0.938-0.661 1.708-1.606 1.708h-11.126c-0.473 0-0.856-0.383-0.856-0.856v-11.126c0-0.945 0.77-1.723 1.708-1.606z"></path>
</svg>
</svg>
